<svg xmlns="http://www.w3.org/2000/svg" viewBox="0 0 1674 768" width="1674" height="768">
  <defs>
    <linearGradient id="sky" x1="0" y1="0" x2="1" y2="1">
      <stop offset="0" stop-color="#071322"/>
      <stop offset="0.48" stop-color="#10273a"/>
      <stop offset="1" stop-color="#06101d"/>
    </linearGradient>
    <radialGradient id="park" cx="50%" cy="48%" r="60%">
      <stop offset="0" stop-color="#496b3b"/>
      <stop offset="1" stop-color="#132d23"/>
    </radialGradient>
    <filter id="softGlow" x="-30%" y="-30%" width="160%" height="160%">
      <feGaussianBlur stdDeviation="5" result="blur"/>
      <feMerge>
        <feMergeNode in="blur"/>
        <feMergeNode in="SourceGraphic"/>
      </feMerge>
    </filter>
    <pattern id="houses" width="60" height="48" patternUnits="userSpaceOnUse">
      <rect x="10" y="10" width="30" height="18" rx="2" fill="#213245"/>
      <rect x="43" y="24" width="12" height="10" rx="1" fill="#2b4056"/>
      <circle cx="20" cy="31" r="1.8" fill="#c8944a" opacity="0.75"/>
      <circle cx="33" cy="16" r="1.5" fill="#88c6d9" opacity="0.5"/>
    </pattern>
    <pattern id="blocks" width="76" height="64" patternUnits="userSpaceOnUse">
      <rect x="8" y="8" width="28" height="42" rx="2" fill="#26394d"/>
      <rect x="44" y="18" width="22" height="32" rx="2" fill="#1f3043"/>
      <path d="M15 18h14M15 27h14M15 36h14M50 27h10M50 37h10" stroke="#7db2c6" stroke-width="1" opacity="0.35"/>
    </pattern>
    <pattern id="industrial" width="92" height="70" patternUnits="userSpaceOnUse">
      <rect x="10" y="20" width="54" height="28" rx="2" fill="#35404a"/>
      <rect x="67" y="10" width="8" height="40" fill="#5b5148"/>
      <rect x="22" y="12" width="14" height="8" fill="#455263"/>
      <circle cx="76" cy="8" r="7" fill="#4d5964" opacity="0.65"/>
      <path d="M8 55h70" stroke="#b86e0c" stroke-width="2" opacity="0.35"/>
    </pattern>
    <pattern id="trees" width="44" height="42" patternUnits="userSpaceOnUse">
      <circle cx="14" cy="18" r="9" fill="#335f32"/>
      <circle cx="29" cy="23" r="11" fill="#244d2b"/>
      <circle cx="23" cy="12" r="7" fill="#4a7b3d"/>
    </pattern>
  </defs>

  <rect width="1674" height="768" fill="url(#sky)"/>
  <rect width="1674" height="768" fill="#020812" opacity="0.2"/>

  <path d="M0 570 C210 600 360 560 520 520 C650 486 780 488 930 526 C1120 574 1350 575 1674 530 L1674 768 L0 768 Z" fill="#062b3d"/>
  <path d="M0 586 C220 620 385 578 535 538 C665 506 795 510 930 548 C1125 602 1350 596 1674 554" fill="none" stroke="#1590a8" stroke-width="5" opacity="0.42"/>
  <path d="M600 470 C720 455 820 464 1010 500 C1190 534 1380 534 1674 492" fill="none" stroke="#33536a" stroke-width="18" opacity="0.7"/>

  <path d="M0 70 L560 42 L620 210 L575 390 L0 418 Z" fill="url(#houses)" opacity="0.82"/>
  <path d="M0 400 L580 382 L610 576 L0 624 Z" fill="url(#industrial)" opacity="0.9"/>
  <path d="M590 34 L1115 0 L1110 238 L610 238 Z" fill="url(#blocks)" opacity="0.88"/>
  <path d="M615 248 L1100 228 L1090 476 L592 448 Z" fill="url(#park)" opacity="0.95"/>
  <path d="M1130 55 L1570 48 L1625 420 L1112 452 Z" fill="#132b3c" opacity="0.96"/>
  <path d="M1148 80 L1545 78 L1582 396 L1130 416 Z" fill="url(#blocks)" opacity="0.58"/>
  <path d="M560 585 L1052 552 L1112 740 L448 768 Z" fill="url(#houses)" opacity="0.56"/>
  <path d="M1090 560 L1620 536 L1674 768 L1052 768 Z" fill="url(#houses)" opacity="0.48"/>

  <rect x="625" y="270" width="450" height="178" rx="24" fill="url(#trees)" opacity="0.7"/>
  <ellipse cx="845" cy="360" rx="96" ry="40" fill="#123f45" opacity="0.8"/>
  <path d="M650 405 C760 360 900 424 1060 350" fill="none" stroke="#829d73" stroke-width="6" opacity="0.35"/>
  <path d="M690 295 C810 320 935 278 1052 312" fill="none" stroke="#829d73" stroke-width="5" opacity="0.28"/>

  <path d="M588 0 L620 768" stroke="#26394d" stroke-width="24" opacity="0.8"/>
  <path d="M1110 0 L1082 768" stroke="#26394d" stroke-width="24" opacity="0.86"/>
  <path d="M0 348 L1674 286" stroke="#26394d" stroke-width="16" opacity="0.82"/>
  <path d="M40 96 C250 64 410 76 560 38" stroke="#31475a" stroke-width="10" opacity="0.78"/>
  <path d="M1120 440 C1330 455 1500 435 1674 390" stroke="#2c4256" stroke-width="13" opacity="0.75"/>
  <path d="M1220 86 L1600 92 L1585 428 L1136 424 Z" fill="none" stroke="#0e76a0" stroke-width="4" opacity="0.68"/>

  <rect x="1218" y="210" width="128" height="62" rx="6" fill="#25513f" opacity="0.85"/>
  <ellipse cx="1436" cy="245" rx="62" ry="40" fill="#33513f" opacity="0.85"/>
  <ellipse cx="1436" cy="245" rx="48" ry="30" fill="none" stroke="#7a4b74" stroke-width="4" opacity="0.6"/>
  <rect x="1294" y="130" width="104" height="44" rx="4" fill="#27445b" opacity="0.9"/>
  <rect x="1408" y="140" width="96" height="38" rx="4" fill="#29475d" opacity="0.85"/>

  <g font-family="Segoe UI, Arial, sans-serif" font-weight="700" letter-spacing="14" text-anchor="middle" filter="url(#softGlow)">
    <text x="350" y="210" font-size="28" fill="#e1b36b">WESTSIDE</text>
    <text x="850" y="155" font-size="28" fill="#75d5b0">CENTRAL</text>
    <text x="1325" y="195" font-size="28" fill="#1dc0e5">SCHOOL DISTRICT</text>
    <text x="330" y="525" font-size="28" fill="#d18434">INDUSTRIAL</text>
    <text x="845" y="408" font-size="26" fill="#65d69a">CITY PARK</text>
    <text x="850" y="615" font-size="26" fill="#68d4cf">RIVERSIDE</text>
  </g>

  <rect width="1674" height="768" fill="#020712" opacity="0.26"/>
  <radialGradient id="vignette" cx="50%" cy="46%" r="72%">
    <stop offset="0" stop-color="#000000" stop-opacity="0"/>
    <stop offset="1" stop-color="#000000" stop-opacity="0.55"/>
  </radialGradient>
  <rect width="1674" height="768" fill="url(#vignette)"/>
</svg>
